<?xml version="1.0" encoding="utf-8"?>
<!-- Generator: Adobe Illustrator 25.2.0, SVG Export Plug-In . SVG Version: 6.00 Build 0)  -->
<svg version="1.1" id="Layer_1" xmlns="http://www.w3.org/2000/svg" xmlns:xlink="http://www.w3.org/1999/xlink" x="0px" y="0px"
	 viewBox="0 0 1905.78 4868.39" style="enable-background:new 0 0 1905.78 4868.39;" xml:space="preserve">
<style type="text/css">
	.st0{fill:#1C1D1C;}
	.st1{fill:none;stroke:#1C1D1C;}
	.st2{fill:#FAE848;}
</style>
<g id="Rectangle_3" transform="translate(8 1452)">
	<rect x="-12.33" y="-1455.48" class="st0" width="1920" height="4872"/>
	<rect x="-11.83" y="-1454.98" class="st1" width="1919" height="4871"/>
</g>
<circle id="Ellipse_1" class="st2" cx="1358.67" cy="811.52" r="30"/>
<circle id="Ellipse_7" class="st2" cx="1638.67" cy="617.52" r="30"/>
<circle id="Ellipse_8" class="st2" cx="477.67" cy="4189.52" r="30"/>
<circle id="Ellipse_11" class="st2" cx="66.67" cy="2053.52" r="30"/>
<circle id="Ellipse_9" class="st2" cx="634.67" cy="4249.52" r="30"/>
<circle id="Ellipse_13" class="st2" cx="222.67" cy="2022.52" r="30"/>
<circle id="Ellipse_10" class="st2" cx="566.67" cy="4159.52" r="16"/>
<circle id="Ellipse_12" class="st2" cx="122.67" cy="1976.52" r="16"/>
<circle id="Ellipse_6" class="st2" cx="1836.67" cy="615.52" r="30"/>
<circle id="Ellipse_2" class="st2" cx="1389.17" cy="678.02" r="30.5"/>
<circle id="Ellipse_3" class="st2" cx="1474.67" cy="703.52" r="26"/>
<path id="Path_1" class="st2" d="M1915.67,703.52c0,0-231.6-70.4-329.12,54.55s-70.1,289.53-292.58,332.2
	S703.85,949.83,499.66,846.21S-4.47,703.52-4.47,703.52v1272.2c0,0,358.2-147.81,576.11,0s1042.44,333.44,1194.82,210.65
	s267.91-261.24,267.91-261.24l99.25-1046.84L1915.67,703.52z"/>
<path id="Path_2" class="st2" d="M-4.33,3804.46c0,0,135.38-105.59,272.99-75.42s276.56,220.81,174.22,302.18
	s-218.45,163.66,0,231.32s422.27,55.77,302.73,171.89s-749.93,95.59-749.93,95.59V3804.46z"/>
</svg>
